<svg version="1.1" id="Layer_1" xmlns="http://www.w3.org/2000/svg" xmlns:xlink="http://www.w3.org/1999/xlink" x="0px" y="0px"
	 width="100%" viewBox="0 0 1013 1013" enable-background="new 0 0 1013 1013" xml:space="preserve">
<path fill="#FFFFFF" opacity="1.000000" stroke="none" 
	d="
M567.000000,1014.000000 
	C379.500000,1014.000000 192.500000,1013.986938 5.500053,1014.093750 
	C1.750724,1014.095886 0.905778,1013.249084 0.906903,1009.500000 
	C1.007345,674.833313 1.007345,340.166656 0.906903,5.500028 
	C0.905777,1.750901 1.750900,0.905779 5.500028,0.906904 
	C340.166656,1.007334 674.833313,1.007334 1009.500000,0.906904 
	C1013.249084,0.905779 1014.094238,1.750900 1014.093140,5.500028 
	C1013.992676,340.166656 1013.992676,674.833313 1014.093140,1009.500000 
	C1014.094238,1013.249084 1013.249390,1014.096863 1009.499939,1014.094055 
	C862.166687,1013.983398 714.833313,1014.000000 567.000000,1014.000000 
z"/>
<path fill="#0A8279" opacity="1.000000" stroke="none" 
	d="
M353.611206,724.170654 
	C303.602509,720.953491 254.137573,717.123352 205.574417,706.010925 
	C195.023117,703.596497 184.644623,700.539185 174.872360,695.787292 
	C159.609009,688.365112 156.240616,673.339783 167.147964,660.389526 
	C185.572464,638.513977 206.596710,619.287109 228.732437,601.277100 
	C297.719849,545.147888 374.950653,503.733307 458.205872,473.137451 
	C465.851166,470.327820 473.504944,467.505402 481.287079,465.120544 
	C484.697113,464.075500 485.591583,462.397583 485.439392,459.061737 
	C485.173859,453.240631 485.514160,447.394135 485.337158,441.566254 
	C484.906128,427.375488 490.036621,415.515839 500.237671,405.842346 
	C505.432556,400.916107 510.921295,396.298889 516.298279,391.565918 
	C519.559265,388.695526 522.661438,385.675354 525.173828,382.114471 
	C533.656555,370.091400 527.843872,356.263641 513.286499,353.957977 
	C501.591431,352.105713 492.237122,357.465729 483.500336,364.181763 
	C479.552734,367.216248 475.338287,369.365417 470.449280,369.962646 
	C455.257874,371.818420 444.426331,358.833649 448.504669,343.744324 
	C449.607544,339.663818 451.565674,336.043915 454.373505,332.860626 
	C478.546051,305.455963 529.915466,300.706177 558.705139,323.229279 
	C582.243652,341.644135 585.725586,375.498627 566.508667,398.802094 
	C560.744873,405.791534 553.814941,411.525726 546.948120,417.345398 
	C543.900452,419.928284 540.950439,422.634094 538.058716,425.391724 
	C532.212769,430.966370 529.066406,437.613434 529.722473,445.919067 
	C530.036438,449.894196 530.081970,453.944824 529.691223,457.906219 
	C529.292908,461.944122 530.773987,463.669769 534.612671,464.944977 
	C571.270203,477.122559 606.910034,491.818359 641.544312,508.925018 
	C704.280884,539.912048 762.485291,577.663391 814.162537,625.075684 
	C826.691528,636.570679 838.812500,648.509094 849.535156,661.750122 
	C856.323669,670.132935 856.953186,679.219849 851.802612,687.693970 
	C849.463928,691.541626 846.157410,694.155151 842.058044,695.929626 
	C821.424377,704.861328 799.602844,709.346375 777.584778,712.958374 
	C730.829407,720.628357 683.657532,723.909607 636.383362,726.164185 
	C558.592041,729.874084 480.795258,729.746948 402.992096,726.794373 
	C386.678467,726.175232 370.383057,725.076477 353.611206,724.170654 
z"/>
<path fill="#FEFFFF" opacity="1.000000" stroke="none" 
	d="
M775.436157,669.509216 
	C718.355469,678.817566 661.197021,682.136169 603.920959,684.141846 
	C551.959900,685.961426 499.989288,686.043640 448.022156,684.844788 
	C395.559448,683.634644 343.156464,681.055420 290.925781,675.799866 
	C267.946747,673.487732 245.016800,670.662231 222.320984,665.839478 
	C225.131088,662.831360 227.637924,659.768921 230.522125,657.116943 
	C277.171600,614.223816 329.527191,579.671265 385.962067,551.135559 
	C423.861481,531.971985 463.129791,516.125916 503.529266,503.051788 
	C506.480865,502.096558 509.138947,501.931915 512.203674,502.934723 
	C600.252136,531.745178 681.767517,572.925659 754.542725,630.687988 
	C767.203369,640.736816 779.435974,651.288147 791.145874,662.440613 
	C792.085876,663.335938 793.362976,663.877380 794.483459,664.583252 
	C794.230835,665.034973 793.978271,665.486694 793.725708,665.938416 
	C787.768127,667.089233 781.810608,668.240051 775.436157,669.509216 
z"/>
</svg>