<svg xmlns="http://www.w3.org/2000/svg" version="1.1" xmlns:xlink="http://www.w3.org/1999/xlink" xmlns:svgjs="http://svgjs.dev/svgjs" width="1500" height="393" viewBox="0 0 1500 393"><g transform="matrix(1,0,0,1,-0.9090909090909918,-0.2029461651108022)"><svg viewBox="0 0 396 104" data-background-color="#ffffff" preserveAspectRatio="xMidYMid meet" height="393" width="1500" xmlns="http://www.w3.org/2000/svg" xmlns:xlink="http://www.w3.org/1999/xlink"><g id="tight-bounds" transform="matrix(1,0,0,1,0.2400000000000091,0.053705855398277436)"><svg viewBox="0 0 395.52 103.89258828920346" height="103.89258828920346" width="395.52"><g><svg viewBox="0 0 606.9408484855248 159.4272241292639" height="103.89258828920346" width="395.52"><g><rect width="14.305782687435146" height="159.4272241292639" x="432.96969289904484" y="0" fill="#098178" opacity="1" stroke-width="0" stroke="transparent" fill-opacity="1" class="rect-qz-0" data-fill-palette-color="primary" rx="1%" id="qz-0" data-palette-color="#098178"></rect></g><g transform="matrix(1,0,0,1,0,0.39658513464989653)"><svg viewBox="0 0 395.52 158.6340538599641" height="158.6340538599641" width="395.52"><g id="textblocktransform"><svg viewBox="0 0 395.52 158.6340538599641" height="158.6340538599641" width="395.52" id="textblock"><g><svg viewBox="0 0 395.52 158.6340538599641" height="158.6340538599641" width="395.52"><g transform="matrix(1,0,0,1,0,0)"><svg width="395.52" viewBox="-3.72 -32.16 111.39 44.68" height="158.6340538599641" data-palette-color="#098178"><path d="M-1.68 12.52L-1.68 12.52Q-3.72 12.52-3.72 10.08L-3.72 10.08Q-3.72 8.36-2.64 5.36-1.56 2.36-0.48 0.16L-0.48 0.16Q1.48-3.68 2.32-5.12L2.32-5.12Q3.24-13.72 3.96-17.44L3.96-17.44Q3-17.32 2.04-17.32 1.08-17.32 0.88-18.32L0.88-18.32Q0.88-19.12 1.36-19.24L1.36-19.24Q1.52-19 2.52-19 3.52-19 4.32-19.08L4.32-19.08Q6.92-31.04 13.2-31.04L13.2-31.04Q14-31.04 13.96-30.44L13.96-30.44Q13.92-30.04 13.68-30.04L13.68-30.04Q10.96-30.04 9.32-27.2 7.68-24.36 6.68-19.24L6.68-19.24Q11.44-19.6 12.48-19.6L12.48-19.6Q12.84-19.6 12.78-19.12 12.72-18.64 11.96-18.64 11.2-18.64 6.4-17.84L6.4-17.84Q5.88-14.88 5.3-9.24 4.72-3.6 4.36-0.64 4 2.32 3.52 4.56 3.04 6.8 2.36 8.68L2.36 8.68Q0.96 12.52-1.68 12.52ZM-1.64 11.36L-1.64 11.36Q-0.4 11.36 0.24 9.28L0.24 9.28Q0.96 7 1.28 4.52L1.28 4.52Q1.76 0.8 2.12-3.12L2.12-3.12Q-0.88 3.24-1.52 5.28L-1.52 5.28Q-2.6 8.72-2.6 10.04-2.6 11.36-1.64 11.36ZM14.4-24.6L14.4-24.6Q13.92-24.6 13.88-25.4L13.88-25.4Q13.88-27.92 14.74-30.04 15.6-32.16 16.88-32.16L16.88-32.16Q17.36-32.16 17.36-31.56L17.36-31.56Q17.08-31.12 16.84-30.76 16.6-30.4 16.34-29.92 16.08-29.44 15.8-28.84 15.52-28.24 15.28-27.64L15.28-27.64Q14.76-26.32 14.76-25.08L14.76-25.08Q14.76-24.6 14.4-24.6ZM15.76 0L15.76 0Q12.48 0 12.48-5.16L12.48-5.16Q12.48-8.24 14-11.92L14-11.92Q16.12-17.08 19.56-18.96L19.56-18.96Q21.04-19.76 22.32-19.76 23.6-19.76 24.34-19.2 25.08-18.64 25.28-18.08L25.28-18.08 25.52-17.56Q25.4-16.88 24.84-16.88L24.84-16.88Q24.2-16.88 24.1-17.18 24-17.48 23.88-17.7 23.76-17.92 23.32-18.3 22.88-18.68 22.32-18.68L22.32-18.68Q19.72-18.68 17.6-14L17.6-14Q15.2-8.6 15.2-3.84L15.2-3.84Q15.2-1.44 16.16-1.44L16.16-1.44Q16.92-1.44 18.3-3.14 19.68-4.84 21.2-7.4L21.2-7.4Q23.84-11.8 25.48-15.04L25.48-15.04Q26.84-17.92 28.28-17.92L28.28-17.92Q29.04-17.92 29.04-17L29.04-17Q28.68-16.24 28.12-14.84 27.56-13.44 26.64-9.28 25.72-5.12 25.72-1 25.72 3.12 26.96 3.12L26.96 3.12Q27.44 3.12 27.84 2.7 28.24 2.28 28.56 1.44L28.56 1.44Q28.68 1 29.12 1L29.12 1Q29.28 1 29.36 1.12 29.44 1.24 29.36 1.52 29.28 1.8 29.08 2.3 28.88 2.8 28.22 3.64 27.56 4.48 26.84 4.48L26.84 4.48Q25.16 4.48 24.26 2.28 23.36 0.08 23.36-2.92 23.36-5.92 23.8-8.68L23.8-8.68 23.4-8.68Q18.32 0 15.76 0ZM34.36-1.36L34.36-1.36Q34.36 1.44 36.16 1.44L36.16 1.44Q37.84 1.44 39.3-1.32 40.76-4.08 40.76-8.28L40.76-8.28Q40.76-10.32 40.02-14.04 39.27-17.76 39.27-18.9 39.27-20.04 39.36-20.4L39.36-20.4Q38.84-19.56 36.36-14.82 33.88-10.08 31.96-7.32L31.96-7.32Q31.8-7.16 31.52-7.22 31.23-7.28 31.05-7.46 30.88-7.64 30.88-7.72 30.88-7.8 30.91-7.84L30.91-7.84Q32.8-10.56 35.3-15.34 37.8-20.12 39.48-22.48 41.16-24.84 42.8-24.84L42.8-24.84Q43.64-24.84 43.64-24.12L43.64-24.12Q43.64-23.64 42.95-22.84L42.95-22.84Q40.8-20.4 40.8-17.84L40.8-17.84Q40.8-16.32 41.95-11.98 43.12-7.64 43.12-5.68L43.12-5.68Q43.12-2.16 41.16 0.3 39.2 2.76 36.72 2.76L36.72 2.76Q33.2 2.76 33.2-1.28L33.2-1.28Q33.2-4.32 35.05-7.64 36.91-10.96 38.8-12.12L38.8-12.12Q39.16-12.36 39.26-11.84 39.36-11.32 39.12-11.16L39.12-11.16Q37-9.96 35.44-6.04L35.44-6.04Q34.36-3.28 34.36-1.36ZM53.99-11.6Q51.87-7.76 50.69-4.8 49.51-1.84 49.51-1.3 49.51-0.76 48.95-0.76L48.95-0.76Q47.75-0.76 47.75-3.96L47.75-3.96Q47.75-10.32 49.03-16.74 50.31-23.16 52.07-27.02 53.83-30.88 55.35-30.88L55.35-30.88Q55.99-30.88 55.99-30.24L55.99-30.24Q53.87-25.56 52.45-19.56 51.03-13.56 50.07-6.76L50.07-6.76 50.35-6.76Q55.43-19.24 60.31-19.24L60.31-19.24Q62.35-19.24 62.35-17.28L62.35-17.28Q62.07-16.36 61.63-14.86 61.19-13.36 60.47-9.48 59.75-5.6 59.75-2.68L59.75-2.68Q59.75 1.56 60.99 1.56L60.99 1.56Q61.43 1.56 61.87 1.18 62.31 0.8 62.47 0.8L62.47 0.8Q63.03 0.8 62.43 1.68L62.43 1.68Q62.27 1.96 61.73 2.44 61.19 2.92 60.67 2.92L60.67 2.92Q59.11 2.92 58.25 0.74 57.39-1.44 57.39-4.92L57.39-4.92Q57.39-10.8 59.15-17.04L59.15-17.04Q59.23-17.64 58.67-17.56L58.67-17.56Q58.39-17.52 58.11-17.24L58.11-17.24Q56.11-15.44 53.99-11.6ZM80.47 0.36L80.47 0.36Q75.55 0.36 75.55-6.4L75.55-6.4Q75.55-10.2 77.47-14L77.47-14Q79.91-18.8 83.27-18.8L83.27-18.8Q83.75-18.8 84.07-18.56 84.39-18.32 84.51-17.84L84.51-17.84Q81.99-17.84 80.15-13.8 78.31-9.76 78.31-5.84L78.31-5.84Q78.31-1.08 80.91-1.08L80.91-1.08Q82.39-1.08 83.99-3.34 85.59-5.6 86.65-9.28 87.71-12.96 87.71-16.68L87.71-16.68 87.71-17.16Q86.47-17.96 85.67-19.16 84.87-20.36 84.87-20.92 84.87-21.48 85.37-21.98 85.87-22.48 86.39-22.48L86.39-22.48Q87.15-22.48 87.87-21.12 88.59-19.76 88.87-18.04L88.87-18.04Q90.11-17.2 91.05-17.2 91.99-17.2 92.55-17.52L92.55-17.52Q92.55-16.96 92.15-16.52 91.75-16.08 90.91-16.08 90.07-16.08 88.99-16.48L88.99-16.48Q88.95-12.64 87.83-8.76 86.71-4.88 84.71-2.26 82.71 0.36 80.47 0.36ZM94.83-6.48L95.19-6.48Q100.34-19.24 105.23-19.24L105.23-19.24Q107.27-19.24 107.27-17.28L107.27-17.28Q106.98-16.36 106.55-14.86 106.11-13.36 105.37-9.48 104.63-5.6 104.63-2.68L104.63-2.68Q104.63 1.56 105.87 1.56L105.87 1.56Q106.34 1.56 106.78 1.18 107.23 0.8 107.39 0.8L107.39 0.8Q107.95 0.8 107.39 1.68L107.39 1.68Q107.19 1.96 106.65 2.44 106.11 2.92 105.55 2.92L105.55 2.92Q104.03 2.92 103.17 0.74 102.31-1.44 102.31-4.92L102.31-4.92Q102.31-10.44 104.03-17.04L104.03-17.04Q104.19-17.56 103.7-17.56L103.7-17.56Q103.39-17.56 102.98-17.24L102.98-17.24Q101.06-15.56 98.95-11.68 96.83-7.8 95.63-4.74 94.42-1.68 94.42-1.18 94.42-0.68 93.87-0.68L93.87-0.68Q92.59-0.68 92.59-3.84L92.59-3.84Q92.59-9.8 93.81-14.64 95.03-19.48 96.75-19.48L96.75-19.48Q97.47-19.48 97.47-18.6L97.47-18.6Q95.63-12.64 94.83-6.48L94.83-6.48Z" opacity="1" transform="matrix(1,0,0,1,0,0)" fill="#098178" class="wordmark-text-0" data-fill-palette-color="primary" id="text-0"></path></svg></g></svg></g></svg></g></svg></g><g transform="matrix(1,0,0,1,484.7251684855249,42.736571646415726)"><svg viewBox="0 0 122.21567999999999 73.95408083643244" height="73.95408083643244" width="122.21567999999999"><g><svg xmlns="http://www.w3.org/2000/svg" xmlns:xlink="http://www.w3.org/1999/xlink" version="1.1" x="0" y="0" viewBox="0.001507172750698664 0 156.99592867200175 95" enable-background="new 0 0 157 95" xml:space="preserve" height="73.95408083643244" width="122.21567999999999" class="icon-icon-0" data-fill-palette-color="accent" id="icon-0"><g fill="#098178" data-fill-palette-color="accent"><path d="M155.8 79.9c-0.9-1.2-23.4-28.7-72.4-45v-4.7c0-5.7 11.1-7.2 11.1-17.7C94.6 4.3 86.9 0 79.8 0c-8.6 0-13.3 5.3-13.3 5.3-1.2 1.2-2.6 4.1-0.7 6.9 2 2.8 5.8 1.5 6.8 0.6 0 0 3-2.7 6.1-2.7 2.4 0 4.6 1.6 4.6 3.8 0 5.4-9.9 6.9-9.9 15.5v5.6C24.4 51.2 2 78.7 1.1 79.9c-0.9 1.1-1.3 2.6-1 4 0.3 1.4 1.2 2.6 2.5 3.3C13.2 93 51.1 95 80.2 95c13.6 0 59-0.5 74.1-7.6 1.4-0.6 2.2-1.9 2.6-3.3C157.2 82.7 156.8 81.1 155.8 79.9zM80.2 85.2c-28 0-53.9-1.8-66.5-4.5 8.9-8.7 30-26.1 64.8-37.1 34.8 11.1 55.8 28.4 64.8 37.1C130.9 83.5 107.6 85.2 80.2 85.2z" fill="#098178" data-fill-palette-color="accent"></path></g></svg></g></svg></g></svg></g><defs></defs></svg><rect width="395.52" height="103.89258828920346" fill="none" stroke="none" visibility="hidden"></rect></g></svg></g></svg>